<svg width="139" height="53" viewBox="0 0 139 53" fill="none" xmlns="http://www.w3.org/2000/svg">
<rect y="0.493164" width="139" height="52" rx="26" fill="url(#paint0_linear_14_110)"/>
<path d="M34.707 20.1963H36.9043V28.748C36.9043 29.7207 36.6934 30.5352 36.2715 31.1914C35.8496 31.8477 35.2754 32.3428 34.5488 32.6768C33.8281 33.0049 33.0225 33.1689 32.1318 33.1689C31.2119 33.1689 30.3916 33.0049 29.6709 32.6768C28.9502 32.3428 28.3818 31.8477 27.9658 31.1914C27.5557 30.5352 27.3506 29.7207 27.3506 28.748V20.1963H29.5479V28.748C29.5479 29.3633 29.6533 29.8701 29.8643 30.2686C30.0752 30.6611 30.374 30.9512 30.7607 31.1387C31.1475 31.3262 31.6045 31.4199 32.1318 31.4199C32.6592 31.4199 33.1133 31.3262 33.4941 31.1387C33.8809 30.9512 34.1797 30.6611 34.3906 30.2686C34.6016 29.8701 34.707 29.3633 34.707 28.748V20.1963ZM41.2197 25.3115V36.6494H39.1016V23.4834H41.0527L41.2197 25.3115ZM47.416 28.1504V28.335C47.416 29.0264 47.334 29.668 47.1699 30.2598C47.0117 30.8457 46.7744 31.3584 46.458 31.7979C46.1475 32.2314 45.7637 32.5684 45.3066 32.8086C44.8496 33.0488 44.3223 33.1689 43.7246 33.1689C43.1328 33.1689 42.6143 33.0605 42.1689 32.8438C41.7295 32.6211 41.3574 32.3076 41.0527 31.9033C40.748 31.499 40.502 31.0244 40.3145 30.4795C40.1328 29.9287 40.0039 29.3252 39.9277 28.6689V27.957C40.0039 27.2598 40.1328 26.627 40.3145 26.0586C40.502 25.4902 40.748 25.001 41.0527 24.5908C41.3574 24.1807 41.7295 23.8643 42.1689 23.6416C42.6084 23.4189 43.1211 23.3076 43.707 23.3076C44.3047 23.3076 44.835 23.4248 45.2979 23.6592C45.7607 23.8877 46.1504 24.2158 46.4668 24.6436C46.7832 25.0654 47.0205 25.5752 47.1787 26.1729C47.3369 26.7646 47.416 27.4238 47.416 28.1504ZM45.2979 28.335V28.1504C45.2979 27.7109 45.2568 27.3037 45.1748 26.9287C45.0928 26.5479 44.9639 26.2139 44.7881 25.9268C44.6123 25.6396 44.3867 25.417 44.1113 25.2588C43.8418 25.0947 43.5166 25.0127 43.1357 25.0127C42.7607 25.0127 42.4385 25.0771 42.1689 25.2061C41.8994 25.3291 41.6738 25.502 41.4922 25.7246C41.3105 25.9473 41.1699 26.208 41.0703 26.5068C40.9707 26.7998 40.9004 27.1191 40.8594 27.4648V29.1699C40.9297 29.5918 41.0498 29.9785 41.2197 30.3301C41.3896 30.6816 41.6299 30.9629 41.9404 31.1738C42.2568 31.3789 42.6611 31.4814 43.1533 31.4814C43.5342 31.4814 43.8594 31.3994 44.1289 31.2354C44.3984 31.0713 44.6182 30.8457 44.7881 30.5586C44.9639 30.2656 45.0928 29.9287 45.1748 29.5479C45.2568 29.167 45.2979 28.7627 45.2979 28.335ZM51.4854 19.4932V32.9932H49.3584V19.4932H51.4854ZM53.4014 28.3438V28.1416C53.4014 27.4561 53.501 26.8203 53.7002 26.2344C53.8994 25.6426 54.1865 25.1299 54.5615 24.6963C54.9424 24.2568 55.4053 23.917 55.9502 23.6768C56.501 23.4307 57.1221 23.3076 57.8135 23.3076C58.5107 23.3076 59.1318 23.4307 59.6768 23.6768C60.2275 23.917 60.6934 24.2568 61.0742 24.6963C61.4551 25.1299 61.7451 25.6426 61.9443 26.2344C62.1436 26.8203 62.2432 27.4561 62.2432 28.1416V28.3438C62.2432 29.0293 62.1436 29.665 61.9443 30.251C61.7451 30.8369 61.4551 31.3496 61.0742 31.7891C60.6934 32.2227 60.2305 32.5625 59.6855 32.8086C59.1406 33.0488 58.5225 33.1689 57.8311 33.1689C57.1338 33.1689 56.5098 33.0488 55.959 32.8086C55.4141 32.5625 54.9512 32.2227 54.5703 31.7891C54.1895 31.3496 53.8994 30.8369 53.7002 30.251C53.501 29.665 53.4014 29.0293 53.4014 28.3438ZM55.5195 28.1416V28.3438C55.5195 28.7715 55.5635 29.1758 55.6514 29.5566C55.7393 29.9375 55.877 30.2715 56.0645 30.5586C56.252 30.8457 56.4922 31.0713 56.7852 31.2354C57.0781 31.3994 57.4268 31.4814 57.8311 31.4814C58.2236 31.4814 58.5635 31.3994 58.8506 31.2354C59.1436 31.0713 59.3838 30.8457 59.5713 30.5586C59.7588 30.2715 59.8965 29.9375 59.9844 29.5566C60.0781 29.1758 60.125 28.7715 60.125 28.3438V28.1416C60.125 27.7197 60.0781 27.3213 59.9844 26.9463C59.8965 26.5654 59.7559 26.2285 59.5625 25.9355C59.375 25.6426 59.1348 25.4141 58.8418 25.25C58.5547 25.0801 58.2119 24.9951 57.8135 24.9951C57.415 24.9951 57.0693 25.0801 56.7764 25.25C56.4893 25.4141 56.252 25.6426 56.0645 25.9355C55.877 26.2285 55.7393 26.5654 55.6514 26.9463C55.5635 27.3213 55.5195 27.7197 55.5195 28.1416ZM69.3799 31.0859V26.5508C69.3799 26.2109 69.3184 25.918 69.1953 25.6719C69.0723 25.4258 68.8848 25.2354 68.6328 25.1006C68.3867 24.9658 68.0762 24.8984 67.7012 24.8984C67.3555 24.8984 67.0566 24.957 66.8047 25.0742C66.5527 25.1914 66.3564 25.3496 66.2158 25.5488C66.0752 25.748 66.0049 25.9736 66.0049 26.2256H63.8955C63.8955 25.8506 63.9863 25.4873 64.168 25.1357C64.3496 24.7842 64.6133 24.4707 64.959 24.1953C65.3047 23.9199 65.7178 23.7031 66.1982 23.5449C66.6787 23.3867 67.2178 23.3076 67.8154 23.3076C68.5303 23.3076 69.1631 23.4277 69.7139 23.668C70.2705 23.9082 70.707 24.2715 71.0234 24.7578C71.3457 25.2383 71.5068 25.8418 71.5068 26.5684V30.7959C71.5068 31.2295 71.5361 31.6191 71.5947 31.9648C71.6592 32.3047 71.75 32.6006 71.8672 32.8525V32.9932H69.6963C69.5967 32.7646 69.5176 32.4746 69.459 32.123C69.4062 31.7656 69.3799 31.4199 69.3799 31.0859ZM69.6875 27.21L69.7051 28.5195H68.1846C67.792 28.5195 67.4463 28.5576 67.1475 28.6338C66.8486 28.7041 66.5996 28.8096 66.4004 28.9502C66.2012 29.0908 66.0518 29.2607 65.9521 29.46C65.8525 29.6592 65.8027 29.8848 65.8027 30.1367C65.8027 30.3887 65.8613 30.6201 65.9785 30.8311C66.0957 31.0361 66.2656 31.1973 66.4883 31.3145C66.7168 31.4316 66.9922 31.4902 67.3145 31.4902C67.748 31.4902 68.126 31.4023 68.4482 31.2266C68.7764 31.0449 69.0342 30.8252 69.2217 30.5674C69.4092 30.3037 69.5088 30.0547 69.5205 29.8203L70.2061 30.7607C70.1357 31.001 70.0156 31.2588 69.8457 31.5342C69.6758 31.8096 69.4531 32.0732 69.1777 32.3252C68.9082 32.5713 68.583 32.7734 68.2021 32.9316C67.8271 33.0898 67.3936 33.1689 66.9014 33.1689C66.2803 33.1689 65.7266 33.0459 65.2402 32.7998C64.7539 32.5479 64.373 32.2109 64.0977 31.7891C63.8223 31.3613 63.6846 30.8779 63.6846 30.3389C63.6846 29.835 63.7783 29.3896 63.9658 29.0029C64.1592 28.6104 64.4404 28.2822 64.8096 28.0186C65.1846 27.7549 65.6416 27.5557 66.1807 27.4209C66.7197 27.2803 67.335 27.21 68.0264 27.21H69.6875ZM79.5225 31.0244V19.4932H81.6494V32.9932H79.7246L79.5225 31.0244ZM73.335 28.3438V28.1592C73.335 27.4385 73.4199 26.7822 73.5898 26.1904C73.7598 25.5928 74.0059 25.0801 74.3281 24.6523C74.6504 24.2188 75.043 23.8877 75.5059 23.6592C75.9688 23.4248 76.4902 23.3076 77.0703 23.3076C77.6445 23.3076 78.1484 23.4189 78.582 23.6416C79.0156 23.8643 79.3848 24.1836 79.6895 24.5996C79.9941 25.0098 80.2373 25.502 80.4189 26.0762C80.6006 26.6445 80.7295 27.2773 80.8057 27.9746V28.5635C80.7295 29.2432 80.6006 29.8643 80.4189 30.4268C80.2373 30.9893 79.9941 31.4756 79.6895 31.8857C79.3848 32.2959 79.0127 32.6123 78.5732 32.835C78.1396 33.0576 77.6328 33.1689 77.0527 33.1689C76.4785 33.1689 75.96 33.0488 75.4971 32.8086C75.04 32.5684 74.6504 32.2314 74.3281 31.7979C74.0059 31.3643 73.7598 30.8545 73.5898 30.2686C73.4199 29.6768 73.335 29.0352 73.335 28.3438ZM75.4531 28.1592V28.3438C75.4531 28.7773 75.4912 29.1816 75.5674 29.5566C75.6494 29.9316 75.7754 30.2627 75.9453 30.5498C76.1152 30.8311 76.335 31.0537 76.6045 31.2178C76.8799 31.376 77.208 31.4551 77.5889 31.4551C78.0693 31.4551 78.4648 31.3496 78.7754 31.1387C79.0859 30.9277 79.3291 30.6436 79.5049 30.2861C79.6865 29.9229 79.8096 29.5186 79.874 29.0732V27.4824C79.8389 27.1367 79.7656 26.8145 79.6543 26.5156C79.5488 26.2168 79.4053 25.9561 79.2236 25.7334C79.042 25.5049 78.8164 25.3291 78.5469 25.2061C78.2832 25.0771 77.9697 25.0127 77.6064 25.0127C77.2197 25.0127 76.8916 25.0947 76.6221 25.2588C76.3525 25.4229 76.1299 25.6484 75.9541 25.9355C75.7842 26.2227 75.6582 26.5566 75.5762 26.9375C75.4941 27.3184 75.4531 27.7256 75.4531 28.1592Z" fill="white"/>
<path fill-rule="evenodd" clip-rule="evenodd" d="M101.856 31.9064L101.564 28.6009C101.564 28.0189 101.088 27.5471 100.5 27.5471C99.9121 27.5471 99.4357 28.0189 99.4357 28.6009L99.1433 31.9064C99.1433 32.6482 99.7507 33.2497 100.5 33.2497C101.249 33.2497 101.856 32.6482 101.856 31.9064ZM101.617 17.5995C101.567 17.5538 101.528 17.5187 101.51 17.5007C101.223 17.2814 100.871 17.1654 100.493 17.1654C100.155 17.1654 99.816 17.2687 99.5424 17.4753C99.3524 17.6079 99.0473 17.914 99.0473 17.914C97.8612 18.998 96.0767 21.6943 95.5028 23.0619C95.491 23.0619 95.1514 23.8749 95.1386 24.2619L95.1386 24.3135C95.1386 24.9072 95.4772 25.4618 96.0245 25.7455C96.2508 25.8627 96.8052 25.9727 97.0681 26.0248C97.1528 26.0416 97.2072 26.0524 97.2106 26.0555C97.9921 26.1715 99.191 26.2485 100.506 26.2485C101.888 26.2485 103.138 26.1715 103.907 26.0301C103.92 26.0301 104.623 25.8878 104.858 25.7972C105.196 25.6548 105.484 25.3975 105.666 25.0748C105.796 24.8165 105.862 24.5455 105.862 24.2619C105.848 23.9646 105.653 23.4099 105.561 23.1906C104.987 21.7459 103.112 18.9843 101.966 17.9267C101.846 17.8085 101.711 17.6853 101.617 17.5995Z" fill="white"/>
<path d="M92.5841 32.4879V35.821H108.416V32.4879" stroke="white" stroke-width="2.5" stroke-linecap="round" stroke-linejoin="round"/>
<defs>
<linearGradient id="paint0_linear_14_110" x1="-2.87121" y1="6.00196" x2="127.746" y2="74.0805" gradientUnits="userSpaceOnUse">
<stop stop-color="#A21ECE"/>
<stop offset="0.46875" stop-color="#F25671"/>
<stop offset="1" stop-color="#FFCB51"/>
</linearGradient>
</defs>
</svg>
