<svg width="202" height="61" viewBox="0 0 202 61" fill="none" xmlns="http://www.w3.org/2000/svg">
<rect y="0.752441" width="202" height="60" rx="30" fill="url(#paint0_linear_5_45)"/>
<path d="M31.3501 36.7524H28.4648L28.4834 34.9062H31.3501C32.1851 34.9062 32.884 34.7238 33.4468 34.3589C34.0158 33.994 34.4425 33.4714 34.7271 32.791C35.0177 32.1107 35.1631 31.3005 35.1631 30.3604V29.6274C35.1631 28.8976 35.0796 28.2513 34.9126 27.6885C34.7518 27.1257 34.5106 26.6525 34.189 26.269C33.8735 25.8856 33.4839 25.5949 33.02 25.397C32.5623 25.1991 32.0335 25.1001 31.4336 25.1001H28.4092V23.2446H31.4336C32.3304 23.2446 33.1499 23.3962 33.8921 23.6992C34.6343 23.9961 35.2744 24.4259 35.8125 24.9888C36.3568 25.5516 36.7743 26.2257 37.0649 27.0112C37.3556 27.7967 37.501 28.675 37.501 29.646V30.3604C37.501 31.3314 37.3556 32.2096 37.0649 32.9951C36.7743 33.7806 36.3568 34.4548 35.8125 35.0176C35.2682 35.5742 34.6188 36.0041 33.8643 36.3071C33.1159 36.604 32.2778 36.7524 31.3501 36.7524ZM29.7544 23.2446V36.7524H27.4258V23.2446H29.7544ZM42.0098 26.7144V36.7524H39.7646V26.7144H42.0098ZM39.6162 24.0796C39.6162 23.7394 39.7275 23.458 39.9502 23.2354C40.179 23.0065 40.4945 22.8921 40.8965 22.8921C41.2923 22.8921 41.6047 23.0065 41.8335 23.2354C42.0623 23.458 42.1768 23.7394 42.1768 24.0796C42.1768 24.4136 42.0623 24.6919 41.8335 24.9146C41.6047 25.1372 41.2923 25.2485 40.8965 25.2485C40.4945 25.2485 40.179 25.1372 39.9502 24.9146C39.7275 24.6919 39.6162 24.4136 39.6162 24.0796ZM50.0903 34.0342C50.0903 33.8115 50.0347 33.6105 49.9233 33.4312C49.812 33.2456 49.5986 33.0786 49.2832 32.9302C48.974 32.7817 48.5163 32.6457 47.9102 32.522C47.3783 32.4045 46.8896 32.2653 46.4443 32.1045C46.0052 31.9375 45.6279 31.7365 45.3125 31.5015C44.9971 31.2664 44.7528 30.9881 44.5796 30.6665C44.4064 30.3449 44.3198 29.9738 44.3198 29.5532C44.3198 29.145 44.4095 28.7585 44.5889 28.3936C44.7682 28.0286 45.0249 27.707 45.3589 27.4287C45.6929 27.1504 46.098 26.9308 46.5742 26.77C47.0566 26.6092 47.5947 26.5288 48.1885 26.5288C49.0296 26.5288 49.7502 26.6711 50.3501 26.9556C50.9562 27.2339 51.4201 27.6143 51.7417 28.0967C52.0633 28.5729 52.2241 29.111 52.2241 29.7109H49.9883C49.9883 29.445 49.9202 29.1976 49.7842 28.9688C49.6543 28.7337 49.4564 28.5451 49.1904 28.4028C48.9245 28.2544 48.5905 28.1802 48.1885 28.1802C47.805 28.1802 47.4865 28.242 47.2329 28.3657C46.9855 28.4832 46.8 28.6379 46.6763 28.8296C46.5588 29.0213 46.5 29.2316 46.5 29.4604C46.5 29.6274 46.5309 29.779 46.5928 29.915C46.6608 30.0449 46.7721 30.1655 46.9268 30.2769C47.0814 30.382 47.2917 30.481 47.5576 30.5737C47.8298 30.6665 48.1699 30.7562 48.5781 30.8428C49.3451 31.0036 50.0037 31.2108 50.5542 31.4644C51.1108 31.7118 51.5376 32.0334 51.8345 32.4292C52.1313 32.8188 52.2798 33.3136 52.2798 33.9136C52.2798 34.3589 52.1839 34.7671 51.9922 35.1382C51.8066 35.5031 51.5345 35.8216 51.1758 36.0938C50.8171 36.3597 50.3872 36.5669 49.8862 36.7153C49.3914 36.8638 48.8348 36.938 48.2163 36.938C47.3071 36.938 46.5371 36.7772 45.9062 36.4556C45.2754 36.1278 44.7961 35.7103 44.4683 35.2031C44.1466 34.6898 43.9858 34.1579 43.9858 33.6074H46.1475C46.1722 34.0218 46.2866 34.3527 46.4907 34.6001C46.701 34.8413 46.9608 35.0176 47.27 35.1289C47.5854 35.234 47.9102 35.2866 48.2441 35.2866C48.6462 35.2866 48.9832 35.234 49.2554 35.1289C49.5275 35.0176 49.7347 34.8691 49.877 34.6836C50.0192 34.4919 50.0903 34.2754 50.0903 34.0342ZM58.3379 35.1567C58.7028 35.1567 59.0306 35.0856 59.3213 34.9434C59.6182 34.7949 59.8563 34.5908 60.0356 34.3311C60.2212 34.0713 60.3232 33.7713 60.3418 33.4312H62.4478C62.4354 34.0806 62.2437 34.6712 61.8726 35.2031C61.5015 35.735 61.0098 36.1587 60.3975 36.4741C59.7852 36.7834 59.1079 36.938 58.3657 36.938C57.5988 36.938 56.9308 36.8081 56.3618 36.5483C55.7928 36.2824 55.3197 35.9175 54.9424 35.4536C54.5651 34.9897 54.2806 34.4548 54.0889 33.8486C53.9033 33.2425 53.8105 32.5931 53.8105 31.9004V31.5757C53.8105 30.883 53.9033 30.2336 54.0889 29.6274C54.2806 29.0151 54.5651 28.4771 54.9424 28.0132C55.3197 27.5493 55.7928 27.1875 56.3618 26.9277C56.9308 26.6618 57.5957 26.5288 58.3564 26.5288C59.1605 26.5288 59.8656 26.6896 60.4717 27.0112C61.0778 27.3267 61.554 27.7689 61.9004 28.3379C62.2529 28.9007 62.4354 29.5563 62.4478 30.3047H60.3418C60.3232 29.9336 60.2305 29.5996 60.0635 29.3027C59.9027 28.9997 59.6738 28.7585 59.377 28.5791C59.0863 28.3997 58.7368 28.3101 58.3286 28.3101C57.8771 28.3101 57.5029 28.4028 57.2061 28.5884C56.9092 28.7677 56.6772 29.0151 56.5103 29.3306C56.3433 29.6398 56.2227 29.9893 56.1484 30.3789C56.0804 30.7624 56.0464 31.1613 56.0464 31.5757V31.9004C56.0464 32.3148 56.0804 32.7168 56.1484 33.1064C56.2165 33.4961 56.334 33.8455 56.501 34.1548C56.6742 34.4578 56.9092 34.7021 57.2061 34.8877C57.5029 35.0671 57.8802 35.1567 58.3379 35.1567ZM63.7373 31.8447V31.6313C63.7373 30.9077 63.8424 30.2367 64.0527 29.6182C64.263 28.9935 64.5661 28.4523 64.9619 27.9946C65.3639 27.5308 65.8525 27.172 66.4277 26.9185C67.0091 26.6587 67.6647 26.5288 68.3945 26.5288C69.1305 26.5288 69.7861 26.6587 70.3613 26.9185C70.9427 27.172 71.4344 27.5308 71.8364 27.9946C72.2384 28.4523 72.5446 28.9935 72.7549 29.6182C72.9652 30.2367 73.0703 30.9077 73.0703 31.6313V31.8447C73.0703 32.5684 72.9652 33.2394 72.7549 33.8579C72.5446 34.4764 72.2384 35.0176 71.8364 35.4814C71.4344 35.9391 70.9458 36.2979 70.3706 36.5576C69.7954 36.8112 69.1429 36.938 68.4131 36.938C67.6771 36.938 67.0184 36.8112 66.437 36.5576C65.8618 36.2979 65.3732 35.9391 64.9712 35.4814C64.5692 35.0176 64.263 34.4764 64.0527 33.8579C63.8424 33.2394 63.7373 32.5684 63.7373 31.8447ZM65.9731 31.6313V31.8447C65.9731 32.2962 66.0195 32.723 66.1123 33.125C66.2051 33.527 66.3504 33.8796 66.5483 34.1826C66.7463 34.4857 66.9998 34.7238 67.3091 34.897C67.6183 35.0701 67.9863 35.1567 68.4131 35.1567C68.8275 35.1567 69.1862 35.0701 69.4893 34.897C69.7985 34.7238 70.0521 34.4857 70.25 34.1826C70.4479 33.8796 70.5933 33.527 70.686 33.125C70.785 32.723 70.8345 32.2962 70.8345 31.8447V31.6313C70.8345 31.186 70.785 30.7655 70.686 30.3696C70.5933 29.9676 70.4448 29.612 70.2407 29.3027C70.0428 28.9935 69.7892 28.7523 69.48 28.5791C69.1769 28.3997 68.8151 28.3101 68.3945 28.3101C67.974 28.3101 67.609 28.3997 67.2998 28.5791C66.9967 28.7523 66.7463 28.9935 66.5483 29.3027C66.3504 29.612 66.2051 29.9676 66.1123 30.3696C66.0195 30.7655 65.9731 31.186 65.9731 31.6313ZM78.0615 34.9805L80.52 26.7144H82.8394L79.3511 36.7524H77.9038L78.0615 34.9805ZM76.1782 26.7144L78.6831 35.0176L78.8037 36.7524H77.3564L73.8496 26.7144H76.1782ZM88.5171 36.938C87.7749 36.938 87.1038 36.8174 86.5039 36.5762C85.9102 36.3288 85.403 35.9855 84.9824 35.5464C84.568 35.1073 84.2495 34.5908 84.0269 33.9971C83.8042 33.4033 83.6929 32.7632 83.6929 32.0767V31.7056C83.6929 30.9201 83.8073 30.2088 84.0361 29.5718C84.265 28.9347 84.5835 28.3905 84.9917 27.939C85.3999 27.4813 85.8823 27.1318 86.439 26.8906C86.9956 26.6494 87.5986 26.5288 88.248 26.5288C88.9655 26.5288 89.5933 26.6494 90.1313 26.8906C90.6694 27.1318 91.1147 27.472 91.4673 27.9111C91.826 28.3441 92.092 28.8605 92.2651 29.4604C92.4445 30.0604 92.5342 30.7222 92.5342 31.4458V32.4014H84.7783V30.7964H90.3262V30.6201C90.3138 30.2181 90.2334 29.8408 90.085 29.4883C89.9427 29.1357 89.7231 28.8512 89.4263 28.6348C89.1294 28.4183 88.7336 28.3101 88.2388 28.3101C87.8677 28.3101 87.5368 28.3905 87.2461 28.5513C86.9616 28.7059 86.7235 28.9316 86.5317 29.2285C86.34 29.5254 86.1916 29.8841 86.0864 30.3047C85.9875 30.7191 85.938 31.186 85.938 31.7056V32.0767C85.938 32.5158 85.9967 32.924 86.1143 33.3013C86.238 33.6724 86.4173 33.9971 86.6523 34.2754C86.8874 34.5537 87.1719 34.7733 87.5059 34.9341C87.8398 35.0887 88.2202 35.166 88.647 35.166C89.1851 35.166 89.6644 35.0578 90.085 34.8413C90.5055 34.6248 90.8704 34.3187 91.1797 33.9229L92.3579 35.064C92.1414 35.3794 91.86 35.6825 91.5137 35.9731C91.1673 36.2576 90.7437 36.4896 90.2427 36.6689C89.7479 36.8483 89.1727 36.938 88.5171 36.938ZM96.5234 28.6255V36.7524H94.2876V26.7144H96.4214L96.5234 28.6255ZM99.5942 26.6494L99.5757 28.7275C99.4396 28.7028 99.2912 28.6842 99.1304 28.6719C98.9757 28.6595 98.8211 28.6533 98.6665 28.6533C98.283 28.6533 97.946 28.709 97.6553 28.8203C97.3646 28.9255 97.1203 29.0801 96.9224 29.2842C96.7306 29.4821 96.5822 29.7233 96.4771 30.0078C96.3719 30.2923 96.3101 30.6108 96.2915 30.9634L95.7812 31.0005C95.7812 30.3696 95.8431 29.7852 95.9668 29.2471C96.0905 28.709 96.276 28.2358 96.5234 27.8276C96.777 27.4194 97.0924 27.1009 97.4697 26.8721C97.8532 26.6432 98.2954 26.5288 98.7964 26.5288C98.9325 26.5288 99.0778 26.5412 99.2324 26.5659C99.3932 26.5907 99.5138 26.6185 99.5942 26.6494ZM116.665 23.2446V36.7524H114.336L108.278 27.0762V36.7524H105.949V23.2446H108.278L114.354 32.9395V23.2446H116.665ZM118.789 31.8447V31.6313C118.789 30.9077 118.894 30.2367 119.104 29.6182C119.315 28.9935 119.618 28.4523 120.014 27.9946C120.416 27.5308 120.904 27.172 121.479 26.9185C122.061 26.6587 122.716 26.5288 123.446 26.5288C124.182 26.5288 124.838 26.6587 125.413 26.9185C125.994 27.172 126.486 27.5308 126.888 27.9946C127.29 28.4523 127.596 28.9935 127.807 29.6182C128.017 30.2367 128.122 30.9077 128.122 31.6313V31.8447C128.122 32.5684 128.017 33.2394 127.807 33.8579C127.596 34.4764 127.29 35.0176 126.888 35.4814C126.486 35.9391 125.998 36.2979 125.422 36.5576C124.847 36.8112 124.195 36.938 123.465 36.938C122.729 36.938 122.07 36.8112 121.489 36.5576C120.914 36.2979 120.425 35.9391 120.023 35.4814C119.621 35.0176 119.315 34.4764 119.104 33.8579C118.894 33.2394 118.789 32.5684 118.789 31.8447ZM121.025 31.6313V31.8447C121.025 32.2962 121.071 32.723 121.164 33.125C121.257 33.527 121.402 33.8796 121.6 34.1826C121.798 34.4857 122.052 34.7238 122.361 34.897C122.67 35.0701 123.038 35.1567 123.465 35.1567C123.879 35.1567 124.238 35.0701 124.541 34.897C124.85 34.7238 125.104 34.4857 125.302 34.1826C125.5 33.8796 125.645 33.527 125.738 33.125C125.837 32.723 125.886 32.2962 125.886 31.8447V31.6313C125.886 31.186 125.837 30.7655 125.738 30.3696C125.645 29.9676 125.497 29.612 125.292 29.3027C125.095 28.9935 124.841 28.7523 124.532 28.5791C124.229 28.3997 123.867 28.3101 123.446 28.3101C123.026 28.3101 122.661 28.3997 122.352 28.5791C122.049 28.7523 121.798 28.9935 121.6 29.3027C121.402 29.612 121.257 29.9676 121.164 30.3696C121.071 30.7655 121.025 31.186 121.025 31.6313ZM132.724 34.5259L135.043 26.7144H136.472L136.082 29.0522L133.744 36.7524H132.464L132.724 34.5259ZM131.36 26.7144L133.169 34.563L133.317 36.7524H131.889L129.17 26.7144H131.36ZM138.643 34.4702L140.396 26.7144H142.576L139.867 36.7524H138.438L138.643 34.4702ZM136.713 26.7144L139.004 34.4331L139.292 36.7524H138.012L135.646 29.043L135.256 26.7144H136.713Z" fill="white"/>
<path fill-rule="evenodd" clip-rule="evenodd" d="M160.641 30.7602L160.643 31.1733C160.657 32.8118 160.756 34.2737 160.926 35.2002C160.926 35.2169 161.112 36.1358 161.23 36.4416C161.416 36.8837 161.752 37.259 162.173 37.4967C162.51 37.6663 162.864 37.7524 163.235 37.7524C163.526 37.7389 164.006 37.5924 164.349 37.4696L164.633 37.3605C166.52 36.6113 170.125 34.1631 171.506 32.666L171.608 32.5613L172.062 32.071C172.349 31.6957 172.5 31.2369 172.5 30.7434C172.5 30.3014 172.365 29.8593 172.095 29.502C172.015 29.3863 171.884 29.2378 171.769 29.1123L171.326 28.6494C169.804 27.1074 166.509 24.9446 164.801 24.2279C164.801 24.2125 163.74 23.7691 163.235 23.7524H163.167C162.392 23.7524 161.668 24.1945 161.298 24.909C161.196 25.1044 161.099 25.487 161.026 25.8231L160.893 26.4576C160.741 27.478 160.641 29.0432 160.641 30.7602ZM153.254 28.981C152.285 28.981 151.5 29.774 151.5 30.7519C151.5 31.7299 152.285 32.5228 153.254 32.5228L157.57 32.1411C158.329 32.1411 158.945 31.5204 158.945 30.7519C158.945 29.9847 158.329 29.3627 157.57 29.3627L153.254 28.981Z" fill="white"/>
<defs>
<linearGradient id="paint0_linear_5_45" x1="-4.17255" y1="7.10875" x2="164.519" y2="117.845" gradientUnits="userSpaceOnUse">
<stop stop-color="#A21ECE"/>
<stop offset="0.46875" stop-color="#F25671"/>
<stop offset="1" stop-color="#FFCB51"/>
</linearGradient>
</defs>
</svg>
